#!OML:ASF F:\VICON\USERDATA\INSTALL\rory3\rory3.ASF
:FULLY-SPECIFIED
:DEGREES
134
root 1.2367736928554487 17.871859974812654 48.4274350633909 -3.204564256839544 -1.0079086374256572 -5.137877856876344
lfemur -14.984325292623657 -1.2003926180966453 -14.285625428823863
ltibia 55.65425411966421
lfoot -5.374043837648449 3.0310577495313544
ltoes -8.850451694421277
rfemur -3.4735070181986583 4.0062225327281 28.87798209329561
rtibia 30.232264161611198
rfoot -11.53867623873185 -9.564961731706978
rtoes -0.297500645527192
lowerback 1.0 0.33561443868747487 3.363639169474225
upperback 0.2003280545787802 1.310900163809871 1.9899767425505837
thorax -4.968667039404347 0.6467901021773155 0.08804541886730499
lowerneck -16.743014581511627 -3.1861280254699347 -1.0691753258555063
upperneck 21.031433348335668 -4.173813981155357 0.5156639559415781
head 9.519100834207277 -1.9906717228103974 -0.16571398231374793
lclavicle -1.0501863719361203e-15 -3.980803968373524e-16
lhumerus -30.270076407751887 -0.4738939053107529 84.09286096077675
lradius 23.67127973055191
lwrist 7.495236387421156
lhand -27.12250611712756 23.16148942155936
lfingers nan
lthumb -0.6032051309732658 53.082615811590706
rclavicle -1.1362422536665853e-15 -4.668072900089922e-16
rhumerus -28.70437162135597 -19.6119503297966 -78.47826238116231
rradius 28.985094078133727
rwrist 4.479042518996446
rhand -17.556728952941924 1.0
rfingers nan
rthumb 8.801078535848054 -8.19131014925945
135
root 1.246544512543673 17.879790539521622 49.2400511686097 -3.2127848340762153 -0.5879935888902152 -4.722977357849612
lfemur -15.807887342723944 -1.6215737910410177 -15.261043928320916
ltibia 52.18218127522073
lfoot -5.6196620380411435 3.1365467244949055
ltoes -9.228815947492526
rfemur -2.5871563281114387 3.914992818142863 28.435366233546933
rtibia 31.014332504362482
rfoot -8.23880738387364 -8.81183611450454
rtoes 0.6168668799863029
lowerback 1.0 0.3722422786539484 3.1633454063797206
upperback 0.181194138050076 1.290215891603304 1.7971231250373056
thorax -4.930351735478978 0.6493330574746711 -0.017328801603930688
lowerneck -16.626036724283868 -3.2234398533328426 -1.1492762182948364
upperneck 21.125000465357704 -4.2364605137933316 0.569513819026284
head 9.549544536936569 -2.015559106810357 -0.15669490203152556
lclavicle -1.0485286582735674e-15 -3.9751333868971452e-16
lhumerus -30.469347129045126 -0.3500501507605016 84.0889980051391
lradius 23.875291207154678
lwrist 7.559443130626009
lhand -27.099225032291397 23.172646265591784
lfingers nan
lthumb -0.6171795315704152 53.03871759775473
rclavicle -1.1343300266563198e-15 -4.658174123272519e-16
rhumerus -28.447635078106163 -19.23787169832336 -78.45309186772342
rradius 29.016949231212536
rwrist 4.43070419619876
rhand -17.570924964594894 1.0
rfingers nan
rthumb 8.806594253706399 -8.172391857949117
136
root 1.258499504494008 17.88747716948904 49.675858827660356 -3.261190793378037 -0.4082030968049941 -4.398417457345632
lfemur -15.771738476036907 -1.9413755011861653 -16.041165752727693
ltibia 47.706882876576195
lfoot -5.78153714599723 3.755915874609448
ltoes -9.965622148415683
rfemur -2.5616157381232334 3.905545341074573 28.017792178634124
rtibia 32.44393342131636
rfoot -5.322272295225153 -8.731325786673567
rtoes 2.1980876468371804
lowerback 1.0 0.407318896818314 2.9371730669871416
upperback 0.17667900800117967 1.2923899254490123 1.6586731468903675
thorax -4.8947488133318835 0.6656390172016622 -0.05240500143879323
lowerneck -16.541556499172362 -3.2535245304906404 -1.2249536711566014
upperneck 21.195602217921717 -4.2874130185423 0.6416458180553386
head 9.572383513893524 -2.034742276060076 -0.13603690536422428
lclavicle -1.0466490475901713e-15 -3.9641434136118016e-16
lhumerus -30.46968970723181 -0.2514173208678021 84.12771783491345
lradius 24.060348140518467
lwrist 7.572503172941667
lhand -27.0695970057203 23.180840605909854
lfingers nan
lthumb -0.6101274016199281 53.030142140107046
rclavicle -1.1332293415861289e-15 -4.652236748811204e-16
rhumerus -28.2611898798207 -18.925565517318525 -78.44952301231572
rradius 29.07262046760719
rwrist 4.405279556919226
rhand -17.564201213848346 1.0
rfingers nan
rthumb 8.829772089272316 -8.124026078856565
137
root 1.2463209477163586 17.89223928667662 48.92250928678002 -3.2020501791786993 -0.4242809110650936 -4.976682085890285
lfemur -15.431146648367186 -2.1174862778268118 -15.888966928864637
ltibia 42.80521771585572
lfoot -5.634789085358864 4.341564016400492
ltoes -10.387553328676365
rfemur -3.1704625967574227 4.056997951664132 28.480133469532287
rtibia 34.624330638924214
rfoot -3.0856976184590117 -9.32822939295852
rtoes 4.110079688821911
lowerback 1.0 0.4458310993336629 3.250764330208757
upperback 0.14621974349053363 1.3695556030411906 1.6390548631252355
thorax -4.889138864649177 0.7105210453111539 -0.1424866040003765
lowerneck -16.49624749716342 -3.273710931743899 -1.2875296827758116
upperneck 21.22780881362949 -4.323241300650704 0.7295268787431165
head 9.582532587682252 -2.046929273949749 -0.10488054699377178
lclavicle -1.044858806886382e-15 -3.950695049447291e-16
lhumerus -30.49768940200867 -0.412842369949842 84.1201472406432
lradius 24.296497263904598
lwrist 7.5471736600041925
lhand -27.047536280862605 23.174785116029675
lfingers nan
lthumb -0.6129772495855552 52.995737492026905
rclavicle -1.1322878961504752e-15 -4.645240598110766e-16
rhumerus -28.139242868274938 -18.687077745461742 -78.49521998443801
rradius 29.139313418405493
rwrist 4.4098855389834934
rhand -17.579549961156385 1.0
rfingers nan
rthumb 8.823425187103568 -8.146247522030245
138
root 1.245988068786058 17.895617304771903 49.26201412310086 -3.2510688756753225 -0.4121728210569029 -4.789289761150544
lfemur -14.669971673312606 -2.2698719060245445 -16.450301062886165
ltibia 37.94231066213146
lfoot -5.889186958017357 3.0500991281739163
ltoes -9.804672144419069
rfemur -4.22494390553036 4.066301415816132 28.195179966849153
rtibia 37.40984176736341
rfoot -2.131606518468055 -10.351190681228008
rtoes 5.816549516036787
lowerback 1.0 0.4432629651580718 3.00638181814
upperback 0.13959988744499463 1.3162762411996458 1.5902136808525478
thorax -4.880622369578936 0.7044919662188353 -0.08842070687362114
lowerneck -16.485608668889018 -3.2865694146111037 -1.3334343979806405
upperneck 21.2155370685325 -4.347799083550442 0.8287086995200834
head 9.576513368608568 -2.0537008152369336 -0.06630578812082569
lclavicle -1.0432245267719798e-15 -3.9402618129937467e-16
lhumerus -30.30615138115164 -0.47830461871340835 84.14783667233021
lradius 24.512084921679136
lwrist 7.484490626721259
lhand -27.01546903231093 23.198240785210764
lfingers nan
lthumb -0.6026813134623362 52.99143656334544
rclavicle -1.1301514674547057e-15 -4.629732502729243e-16
rhumerus -28.026916625164912 -18.43204242438957 -78.5636297198477
rradius 29.208397439407136
rwrist 4.435418471558592
rhand -17.56350176296328 1.0
rfingers nan
rthumb 8.8253184283634 -8.150319875327101
139
root 1.2459778416170277 17.897329572883795 49.7010960780881 -3.278447253109367 -0.2539314809056554 -4.423784661966008
lfemur -13.696452035032156 -2.500803548678777 -17.309567895502536
ltibia 33.698458602868456
lfoot -5.714546319682622 3.111218562570279
ltoes -10.114666558187098
rfemur -5.47762980425589 3.8197139275170287 27.6754521410347
rtibia 40.48286384078712
rfoot -2.1407629313697507 -11.227700308783291
rtoes 6.913586031572247
lowerback 1.0 0.40402698189502656 2.694648140361374
upperback 0.13308863147940125 1.1649924197773054 1.533057599021826
thorax -4.889171923523958 0.6374527719630803 0.02249493053012952
lowerneck -16.50438793097392 -3.2910700227545617 -1.360505448463917
upperneck 21.169532851075786 -4.359660530328325 0.9316920695696448
head 9.55901598437604 -2.054698520038828 -0.023687575759549384
lclavicle -1.0433303417388556e-15 -3.9381457753046497e-16
lhumerus -30.14248948867473 -0.6828336872709229 84.13253601506676
lradius 24.754720109986906
lwrist 7.383227917035396
lhand -26.99523396724468 23.19560771271886
lfingers nan
lthumb -0.5692156674934092 53.01794250854943
rclavicle -1.1294638931507163e-15 -4.621814886855389e-16
rhumerus -27.961842416589807 -18.1537525136438 -78.64712652053186
rradius 29.27451087552992
rwrist 4.470322245174878
rhand -17.574469908867513 1.0
rfingers nan
rthumb 8.813401808866427 -8.178152900110476
